<svg width="32" height="32" viewBox="0 0 32 32" xmlns="http://www.w3.org/2000/svg">
<path d="M4 4C4 2.93913 4.42143 1.92172 5.17157 1.17157C5.92172 0.421427 6.93913 0 8 0L24 0C25.0609 0 26.0783 0.421427 26.8284 1.17157C27.5786 1.92172 28 2.93913 28 4V31C27.9999 31.1809 27.9508 31.3584 27.8578 31.5135C27.7648 31.6687 27.6315 31.7957 27.472 31.8811C27.3125 31.9665 27.1329 32.007 26.9522 31.9983C26.7715 31.9897 26.5966 31.9322 26.446 31.832L16 26.202L5.554 31.832C5.40341 31.9322 5.22846 31.9897 5.04778 31.9983C4.86711 32.007 4.68747 31.9665 4.528 31.8811C4.36853 31.7957 4.23521 31.6687 4.14223 31.5135C4.04925 31.3584 4.00009 31.1809 4 31V4ZM8 2C7.46957 2 6.96086 2.21071 6.58579 2.58579C6.21071 2.96086 6 3.46957 6 4V29.132L15.446 24.168C15.6101 24.0588 15.8029 24.0005 16 24.0005C16.1971 24.0005 16.3899 24.0588 16.554 24.168L26 29.132V4C26 3.46957 25.7893 2.96086 25.4142 2.58579C25.0391 2.21071 24.5304 2 24 2H8Z" />
</svg>
