<svg width="32" height="32" viewBox="0 0 32 32" fill="none" xmlns="http://www.w3.org/2000/svg">
<path d="M31.4952 15.93C31.4952 15.9262 31.4917 15.9262 31.4917 15.9225L31.4281 15.844C31.4246 15.8403 31.4211 15.8328 31.414 15.8291C31.3893 15.7992 31.361 15.7693 31.3363 15.7394L17.6962 1.30999L16.7819 0.342049C16.5736 0.122961 16.2919 0 15.9982 0C15.7046 0 15.4229 0.122961 15.2146 0.342049L0.660121 15.7431C0.397186 16.02 0.203137 16.3615 0.0953116 16.7372L0.0741313 16.8157L0.063541 16.8568L0.0529509 16.9016C0.0458908 16.9278 0.0423608 16.954 0.0388307 16.9801C0.0388307 16.9839 0.0388306 16.9913 0.0353006 16.9951C0.0141202 17.1072 0.00353006 17.2193 0 17.3352V17.4585C0 17.4772 8.0744e-08 17.4959 0.00353014 17.5146C0.00353014 17.5332 0.00353009 17.5482 0.00706014 17.5669C0.00706014 17.5856 0.0105901 17.6042 0.0105901 17.6229C0.0105901 17.6454 0.0141202 17.6678 0.0176503 17.6902C0.0176503 17.7014 0.0211804 17.7126 0.0211804 17.7238L0.0317706 17.8173V17.821C0.211804 18.9609 1.16845 19.8204 2.29101 19.8204H3.79128V32H28.2087V19.8279H29.7407C30.0443 19.8279 30.3373 19.7644 30.6056 19.6448C30.8739 19.5252 31.1245 19.3495 31.3399 19.1253C31.5502 18.9033 31.7168 18.6394 31.8301 18.3488C31.9434 18.0582 32.0012 17.7467 32 17.4323C32 16.883 31.8235 16.356 31.4952 15.93V15.93ZM17.9751 29.3092H14.0214V21.6853H17.9751V29.3092ZM25.6671 17.1371V29.3092H20.2343V20.7884C20.2343 19.9624 19.6024 19.2935 18.8223 19.2935H13.1742C12.394 19.2935 11.7622 19.9624 11.7622 20.7884V29.3092H6.3294V17.1371H2.94054L16.0018 3.32061L16.8172 4.18391L29.0594 17.1371H25.6671Z" fill="#001E1D"/>
</svg>
