<svg width="32" height="32" viewBox="0 0 32 32" fill="none" xmlns="http://www.w3.org/2000/svg">
<path d="M2.6665 15.9998L9.33317 21.3332V17.3332H21.3332V14.6665H9.33317V10.6665L2.6665 15.9998Z" fill="#001E1D"/>
<path d="M17.3345 3.99858C15.7578 3.99421 14.196 4.30273 12.7394 4.90627C11.2829 5.5098 9.96059 6.39636 8.84912 7.51458L10.7345 9.39991C12.4971 7.63725 14.8411 6.66525 17.3345 6.66525C19.8278 6.66525 22.1718 7.63725 23.9345 9.39991C25.6971 11.1626 26.6691 13.5066 26.6691 15.9999C26.6691 18.4932 25.6971 20.8372 23.9345 22.5999C22.1718 24.3626 19.8278 25.3346 17.3345 25.3346C14.8411 25.3346 12.4971 24.3626 10.7345 22.5999L8.84912 24.4852C11.1145 26.7519 14.1278 28.0012 17.3345 28.0012C20.5411 28.0012 23.5545 26.7519 25.8198 24.4852C28.0865 22.2199 29.3358 19.2066 29.3358 15.9999C29.3358 12.7932 28.0865 9.77991 25.8198 7.51458C24.7083 6.39636 23.386 5.5098 21.9295 4.90627C20.4729 4.30273 18.9111 3.99421 17.3345 3.99858Z" fill="#001E1D"/>
</svg>
