<svg width="28" height="28" viewBox="0 0 28 28" fill="none" xmlns="http://www.w3.org/2000/svg">
<path d="M27.8973 25.6218L20.3644 18.0698C22.1746 15.8911 23.0773 13.0966 22.8847 10.2677C22.6921 7.43873 21.419 4.79315 19.3302 2.88128C17.2415 0.969401 14.4979 -0.0615654 11.6703 0.00284618C8.84264 0.0672578 6.14862 1.22209 4.14866 3.2271C2.1487 5.23211 0.996776 7.93293 0.932527 10.7677C0.868277 13.6025 1.89665 16.353 3.80371 18.447C5.71076 20.541 8.34968 21.8173 11.1715 22.0104C13.9933 22.2035 16.7807 21.2986 18.9539 19.4838L26.4869 27.0358L27.8973 25.6218ZM2.96032 11.0358C2.96032 9.25573 3.48683 7.51567 4.47327 6.03563C5.45971 4.55559 6.86178 3.40203 8.50217 2.72084C10.1426 2.03966 11.9476 1.86143 13.689 2.20869C15.4305 2.55596 17.0301 3.41313 18.2856 4.6718C19.5411 5.93047 20.3961 7.53412 20.7425 9.27995C21.0889 11.0258 20.9111 12.8354 20.2316 14.4799C19.5522 16.1244 18.4015 17.5301 16.9252 18.519C15.4489 19.5079 13.7132 20.0358 11.9376 20.0358C9.55752 20.0331 7.27564 19.0841 5.59264 17.3968C3.90963 15.7095 2.96296 13.4219 2.96032 11.0358Z" fill="#001E1D"/>
</svg>
